<svg width="32" height="32" viewBox="0 0 32 32" fill="none" xmlns="http://www.w3.org/2000/svg">
<g clip-path="url(#clip0_4_8)">
<path d="M25.3333 24C26.571 24 27.758 23.5083 28.6332 22.6332C29.5083 21.758 30 20.571 30 19.3333C30 18.0957 29.5083 16.9087 28.6332 16.0335C27.758 15.1583 26.571 14.6667 25.3333 14.6667H24C24.1945 13.7999 24.1975 12.9072 24.0087 12.0395C23.8199 11.1717 23.4431 10.3459 22.8997 9.60924C22.3563 8.87256 21.657 8.23942 20.8417 7.74597C20.0264 7.25252 19.1112 6.90843 18.1481 6.73333C17.1851 6.55824 16.1932 6.55557 15.229 6.72548C14.2648 6.8954 13.3473 7.23456 12.5288 7.72362C10.8757 8.71131 9.72623 10.2496 9.33332 12C7.91192 11.9431 6.51404 12.3605 5.37901 13.1809C4.24399 14.0013 3.44242 15.1736 3.11155 16.4971C2.78068 17.8206 2.94109 19.2129 3.56532 20.4357C4.18955 21.6585 5.23876 22.6357 6.53332 23.2" stroke="#201D4A" stroke-width="2" stroke-linecap="round" stroke-linejoin="round"/>
<path d="M16 17.3333V29.3333" stroke="#201D4A" stroke-width="2" stroke-linecap="round" stroke-linejoin="round"/>
<path d="M12 25.3333L16 29.3333L20 25.3333" stroke="#201D4A" stroke-width="2" stroke-linecap="round" stroke-linejoin="round"/>
</g>
<defs>
<clipPath id="clip0_4_8">
<rect width="32" height="32" fill="white"/>
</clipPath>
</defs>
</svg>
