<svg width="22" height="22" viewBox="0 0 22 22" fill="none" xmlns="http://www.w3.org/2000/svg">
<g clip-path="url(#clip0_3_26)">
<path d="M9.16663 12.8333C9.46535 13.1382 9.8219 13.3804 10.2154 13.5458C10.6089 13.7111 11.0315 13.7963 11.4583 13.7963C11.8851 13.7963 12.3077 13.7111 12.7012 13.5458C13.0947 13.3804 13.4512 13.1382 13.75 12.8333L17.4166 9.16667C18.0244 8.55888 18.3659 7.73454 18.3659 6.875C18.3659 6.01546 18.0244 5.19112 17.4166 4.58333C16.8088 3.97555 15.9845 3.63409 15.125 3.63409C14.2654 3.63409 13.4411 3.97555 12.8333 4.58333L12.375 5.04167" stroke="#141E42" stroke-width="1.375" stroke-linecap="round" stroke-linejoin="round"/>
<path d="M12.8333 9.16667C12.5346 8.86179 12.178 8.61958 11.7845 8.45422C11.391 8.28887 10.9684 8.2037 10.5416 8.2037C10.1148 8.2037 9.69223 8.28887 9.29872 8.45422C8.90522 8.61958 8.54866 8.86179 8.24994 9.16667L4.58327 12.8333C3.97548 13.4411 3.63403 14.2655 3.63403 15.125C3.63403 15.9845 3.97548 16.8089 4.58327 17.4167C5.19106 18.0245 6.0154 18.3659 6.87494 18.3659C7.73448 18.3659 8.55882 18.0245 9.16661 17.4167L9.62494 16.9583" stroke="#141E42" stroke-width="1.375" stroke-linecap="round" stroke-linejoin="round"/>
</g>
<defs>
<clipPath id="clip0_3_26">
<rect width="22" height="22" fill="white"/>
</clipPath>
</defs>
</svg>
