<svg width="22" height="22" viewBox="0 0 22 22" fill="none" xmlns="http://www.w3.org/2000/svg">
<g clip-path="url(#clip0_3_82)">
<path d="M13.75 7.33333H13.7592" stroke="#141E42" stroke-width="1.375" stroke-linecap="round" stroke-linejoin="round"/>
<path d="M15.5833 3.66667H6.41663C4.89784 3.66667 3.66663 4.89788 3.66663 6.41667V15.5833C3.66663 17.1021 4.89784 18.3333 6.41663 18.3333H15.5833C17.1021 18.3333 18.3333 17.1021 18.3333 15.5833V6.41667C18.3333 4.89788 17.1021 3.66667 15.5833 3.66667Z" stroke="#141E42" stroke-width="1.375" stroke-linecap="round" stroke-linejoin="round"/>
<path d="M3.66663 13.75L7.33329 10.0833C7.75135 9.68106 8.22557 9.46928 8.70829 9.46928C9.19102 9.46928 9.66524 9.68106 10.0833 10.0833L14.6666 14.6667" stroke="#141E42" stroke-width="1.375" stroke-linecap="round" stroke-linejoin="round"/>
<path d="M12.8334 12.8333L13.75 11.9167C14.1681 11.5144 14.6423 11.3026 15.125 11.3026C15.6078 11.3026 16.082 11.5144 16.5 11.9167L18.3334 13.75" stroke="#141E42" stroke-width="1.375" stroke-linecap="round" stroke-linejoin="round"/>
</g>
<defs>
<clipPath id="clip0_3_82">
<rect width="22" height="22" fill="white"/>
</clipPath>
</defs>
</svg>
