<svg width="22" height="22" viewBox="0 0 22 22" fill="none" xmlns="http://www.w3.org/2000/svg">
<g clip-path="url(#clip0_3_72)">
<path d="M5.5 13.75H19.25" stroke="#141E42" stroke-width="1.375" stroke-linecap="round" stroke-linejoin="round"/>
<path d="M19.25 17.4167H5.5" stroke="#141E42" stroke-width="1.375" stroke-linecap="round" stroke-linejoin="round"/>
<path d="M13.75 10.0833H19.25" stroke="#141E42" stroke-width="1.375" stroke-linecap="round" stroke-linejoin="round"/>
<path d="M19.25 6.41667H13.75" stroke="#141E42" stroke-width="1.375" stroke-linecap="round" stroke-linejoin="round"/>
<path d="M8.25 8.25H9.16667C9.34797 8.25 9.52519 8.30376 9.67594 8.40449C9.82668 8.50521 9.94418 8.64838 10.0136 8.81587C10.0829 8.98337 10.1011 9.16768 10.0657 9.3455C10.0304 9.52332 9.94305 9.68665 9.81485 9.81485C9.68665 9.94305 9.52332 10.0304 9.3455 10.0657C9.16768 10.1011 8.98337 10.0829 8.81587 10.0136C8.64837 9.94418 8.50521 9.82669 8.40449 9.67594C8.30376 9.5252 8.25 9.34797 8.25 9.16667V6.875C8.25 6.38877 8.44315 5.92246 8.78697 5.57864C9.13079 5.23482 9.5971 5.04167 10.0833 5.04167" stroke="#141E42" stroke-width="1.375" stroke-linecap="round" stroke-linejoin="round"/>
<path d="M2.75 8.25H3.66667C3.84797 8.25 4.02519 8.30376 4.17594 8.40449C4.32668 8.50521 4.44418 8.64838 4.51356 8.81587C4.58294 8.98337 4.60109 9.16768 4.56572 9.3455C4.53035 9.52332 4.44305 9.68665 4.31485 9.81485C4.18665 9.94305 4.02332 10.0304 3.8455 10.0657C3.66768 10.1011 3.48337 10.0829 3.31587 10.0136C3.14837 9.94418 3.00521 9.82669 2.90449 9.67594C2.80376 9.5252 2.75 9.34797 2.75 9.16667V6.875C2.75 6.38877 2.94315 5.92246 3.28697 5.57864C3.63079 5.23482 4.0971 5.04167 4.58333 5.04167" stroke="#141E42" stroke-width="1.375" stroke-linecap="round" stroke-linejoin="round"/>
</g>
<defs>
<clipPath id="clip0_3_72">
<rect width="22" height="22" fill="white"/>
</clipPath>
</defs>
</svg>
